<svg xmlns="http://www.w3.org/2000/svg" xmlns:xlink="http://www.w3.org/1999/xlink" width="500" zoomAndPan="magnify" viewBox="0 0 375 374.999991" height="500" preserveAspectRatio="xMidYMid meet" version="1.0"><defs><g/></defs><path fill="#000000" d="M 216.242188 66.414062 C 212.570312 55.671875 198.742188 60.085938 190.523438 58.632812 C 183.722656 57.433594 177.605469 52.429688 170.824219 50.679688 C 158 47.375 139.507812 53.636719 132.269531 64.777344 C 124.894531 76.128906 124.144531 92.324219 127.171875 105.136719 C 128.285156 109.847656 130.871094 114.058594 132.023438 118.773438 C 134.160156 127.488281 135.019531 138.710938 134.554688 147.679688 C 134.125 155.996094 124.003906 169.308594 128.949219 177.128906 C 131.851562 181.71875 138.199219 184.085938 142.914062 186.28125 C 155.699219 192.238281 169.40625 194.214844 183.316406 194.210938 C 188.492188 194.207031 198.230469 192.566406 202.390625 189.132812 C 204.558594 187.339844 204.046875 183.449219 204.359375 180.949219 C 205.1875 174.324219 205.226562 166.089844 208.632812 160.222656 C 217.117188 145.605469 227.855469 132.253906 237.289062 118.226562 C 241.582031 111.847656 247.523438 104.585938 249.335938 96.957031 C 251.21875 89.007812 250.484375 76.46875 244.492188 70.414062 C 237.449219 63.300781 226.347656 63.5625 217.515625 66.171875 M 185.050781 59.867188 C 174.382812 63.175781 167.007812 79.367188 166.992188 89.867188 C 166.863281 93.234375 165.675781 99.394531 169.179688 101.320312 C 167.648438 89.242188 170.046875 71.175781 181.3125 63.765625 C 189.078125 58.65625 206.722656 57.8125 213.292969 65.378906 C 217.371094 70.074219 217.402344 77.464844 216.691406 83.320312 C 215.527344 92.871094 207.410156 99.148438 203.65625 107.320312 C 210.503906 105.398438 218.363281 90.1875 218.722656 83.320312 C 219.082031 76.417969 215.789062 69.246094 224.453125 66.917969 C 241.777344 62.269531 247.910156 78.125 247.234375 91.808594 C 246.488281 96.894531 243.636719 104.53125 240.839844 108.953125 C 234.578125 118.859375 228.425781 129.609375 220.648438 138.40625 C 218.167969 141.210938 210.777344 153.410156 206.183594 147.890625 C 204.613281 146 206.652344 143.351562 207.65625 141.679688 C 211.128906 135.90625 215.070312 130.640625 218.433594 124.769531 C 211.710938 128.066406 210.222656 139.105469 203.109375 143.308594 C 199.382812 145.511719 191.980469 142.246094 191.246094 137.851562 C 190.492188 133.363281 193.257812 127.421875 195.449219 123.679688 C 190.535156 127.296875 191.777344 134.171875 187.574219 137.457031 C 185.371094 139.175781 181.355469 137.890625 178.972656 137.296875 C 176.414062 136.664062 172.460938 136.371094 170.605469 134.308594 C 169.226562 132.777344 169.730469 129.933594 169.726562 128.042969 C 169.722656 123.792969 169.171875 119.59375 168.085938 115.5 C 168.085938 115.5 169.3125 129.269531 166.523438 132.777344 C 163.878906 136.105469 153.0625 135.066406 152.230469 131.304688 L 151.121094 118.773438 C 149.683594 122.710938 150.933594 126.949219 149.496094 130.761719 C 148.628906 133.058594 143.695312 136.289062 142.148438 132.863281 C 140.753906 129.769531 141.539062 124.359375 141.214844 120.953125 C 140.761719 116.199219 139.195312 110.878906 137.988281 106.226562 C 137.988281 106.226562 139.546875 120.65625 139.628906 127.5 C 139.664062 130.472656 138.765625 137.113281 136.710938 134.046875 C 134.4375 128.160156 135.148438 124.628906 133.667969 118.582031 C 132.554688 114.046875 130.109375 108.550781 128.945312 104.046875 C 125.902344 92.238281 127.125 78.207031 133.25 67.503906 C 141.136719 53.714844 162.394531 48.285156 176.296875 54.820312 C 179.183594 56.179688 183.242188 57.113281 185.050781 59.867188 M 150.574219 81.683594 L 151 82.40625 C 151.648438 74.316406 156.8125 63.550781 165.351562 61.503906 C 156.929688 58.015625 147.773438 74.933594 150.574219 81.683594 M 230.472656 75.683594 C 232.285156 80.089844 234.054688 84.136719 233.132812 89.042969 C 232.78125 92.953125 230.253906 97.457031 229.378906 101.316406 C 235.121094 96.558594 237.820312 80.578125 230.472656 75.683594 M 202.5625 183.675781 C 182.109375 172.949219 152.5625 167.304688 129.78125 173.3125 C 130.167969 164.800781 135.621094 157.292969 136.296875 148.769531 C 136.523438 145.882812 135.558594 140.566406 137.765625 138.242188 C 141.148438 134.683594 149.402344 135.628906 153.859375 135.679688 C 168.542969 135.855469 184.703125 138.585938 197.636719 145.808594 C 200.929688 147.648438 206.140625 149.320312 208.242188 152.609375 C 210.113281 155.539062 206.449219 159.109375 205.496094 161.859375 C 203.300781 168.191406 202.566406 176.96875 202.5625 183.675781 M 197.835938 184.347656 C 200.488281 186.019531 202.160156 187.367188 199.847656 188.761719 C 186.335938 195.152344 170.347656 191.933594 156.59375 187.042969 C 153.050781 185.785156 142.847656 183.253906 143.210938 178.242188 C 143.597656 172.957031 152.390625 173.796875 155.75 173.796875 C 170.378906 174.402344 184.496094 177.140625 197.835938 184.347656 Z M 197.835938 184.347656 " fill-opacity="1" fill-rule="nonzero"/><g fill="#000000" fill-opacity="1"><g transform="translate(58.743122, 278.06624)"><g><path d="M 13.90625 -5.59375 C 13.96875 -5.300781 14.03125 -5.015625 14.09375 -4.734375 C 14.15625 -4.460938 14.210938 -4.179688 14.265625 -3.890625 C 15.054688 -6.234375 15.660156 -8.59375 16.078125 -10.96875 C 16.492188 -13.351562 16.882812 -15.75 17.25 -18.15625 C 17.726562 -21.769531 18.222656 -25.382812 18.734375 -29 C 19.253906 -32.613281 19.785156 -36.253906 20.328125 -39.921875 C 20.390625 -40.523438 20.554688 -41.003906 20.828125 -41.359375 C 21.097656 -41.722656 21.59375 -41.96875 22.3125 -42.09375 C 24.113281 -42.394531 25.421875 -42.546875 26.234375 -42.546875 C 27.046875 -42.546875 27.648438 -42.195312 28.046875 -41.5 C 28.441406 -40.8125 28.96875 -39.59375 29.625 -37.84375 C 29.75 -37.425781 29.898438 -37.003906 30.078125 -36.578125 C 30.253906 -36.160156 30.4375 -35.710938 30.625 -35.234375 C 31.40625 -33.003906 32.53125 -31.0625 34 -29.40625 C 35.476562 -27.75 37.210938 -26.347656 39.203125 -25.203125 C 39.566406 -25.023438 39.910156 -24.828125 40.234375 -24.609375 C 40.566406 -24.398438 40.882812 -24.207031 41.1875 -24.03125 C 41.488281 -23.84375 41.757812 -23.644531 42 -23.4375 C 42.238281 -23.226562 42.269531 -22.910156 42.09375 -22.484375 C 41.914062 -22.003906 41.660156 -21.78125 41.328125 -21.8125 C 40.992188 -21.84375 40.675781 -21.921875 40.375 -22.046875 C 38.925781 -22.523438 37.492188 -23.050781 36.078125 -23.625 C 34.671875 -24.195312 33.363281 -24.992188 32.15625 -26.015625 C 31.195312 -26.859375 30.25 -27.71875 29.3125 -28.59375 C 28.375 -29.46875 27.484375 -30.382812 26.640625 -31.34375 C 26.523438 -31.519531 26.40625 -31.695312 26.28125 -31.875 C 26.164062 -32.0625 25.925781 -32.15625 25.5625 -32.15625 C 25.195312 -31.25 24.96875 -30.34375 24.875 -29.4375 C 24.789062 -28.539062 24.6875 -27.640625 24.5625 -26.734375 C 23.90625 -22.160156 23.226562 -17.597656 22.53125 -13.046875 C 21.84375 -8.503906 20.988281 -4.003906 19.96875 0.453125 C 19.71875 1.359375 19.457031 2.257812 19.1875 3.15625 C 18.914062 4.0625 18.539062 4.9375 18.0625 5.78125 C 17.644531 6.6875 17.164062 7.257812 16.625 7.5 C 16.082031 7.738281 15.328125 7.796875 14.359375 7.671875 C 12.796875 7.429688 11.441406 6.921875 10.296875 6.140625 C 9.148438 5.359375 8.304688 4.15625 7.765625 2.53125 C 6.679688 -0.601562 5.804688 -3.765625 5.140625 -6.953125 C 4.484375 -10.148438 3.914062 -13.375 3.4375 -16.625 C 2.894531 -19.988281 2.488281 -23.375 2.21875 -26.78125 C 1.945312 -30.1875 1.71875 -33.570312 1.53125 -36.9375 C 1.46875 -37.726562 1.453125 -38.5 1.484375 -39.25 C 1.515625 -40 1.5625 -40.765625 1.625 -41.546875 C 1.75 -42.691406 2.289062 -43.328125 3.25 -43.453125 C 3.914062 -43.503906 4.5625 -43.59375 5.1875 -43.71875 C 5.820312 -43.84375 6.441406 -43.960938 7.046875 -44.078125 C 8.066406 -44.253906 8.671875 -43.832031 8.859375 -42.8125 C 8.972656 -41.851562 9.101562 -40.890625 9.25 -39.921875 C 9.40625 -38.960938 9.546875 -38 9.671875 -37.03125 C 10.390625 -31.789062 11.09375 -26.550781 11.78125 -21.3125 C 12.476562 -16.070312 13.1875 -10.832031 13.90625 -5.59375 Z M 13.90625 -5.59375 "/></g></g></g><g fill="#000000" fill-opacity="1"><g transform="translate(98.482953, 278.06624)"><g><path d="M 26.5625 -26.46875 C 27.28125 -26.164062 27.625 -25.785156 27.59375 -25.328125 C 27.5625 -24.878906 27.425781 -24.414062 27.1875 -23.9375 C 26.101562 -21.40625 25.003906 -18.84375 23.890625 -16.25 C 22.773438 -13.664062 21.644531 -11.078125 20.5 -8.484375 C 20.144531 -7.703125 19.785156 -6.9375 19.421875 -6.1875 C 19.054688 -5.4375 18.664062 -4.671875 18.25 -3.890625 C 17.21875 -2.140625 15.785156 -0.929688 13.953125 -0.265625 C 12.117188 0.390625 10.238281 0.503906 8.3125 0.078125 C 6.382812 -0.335938 4.816406 -1.359375 3.609375 -2.984375 C 2.828125 -4.003906 2.207031 -5.085938 1.75 -6.234375 C 1.300781 -7.378906 0.925781 -8.550781 0.625 -9.75 C 0.144531 -11.625 -0.164062 -13.523438 -0.3125 -15.453125 C -0.46875 -17.378906 -0.515625 -19.179688 -0.453125 -20.859375 C -0.515625 -24.597656 -0.289062 -28.179688 0.21875 -31.609375 C 0.738281 -35.046875 1.445312 -38.453125 2.34375 -41.828125 C 2.40625 -42.179688 2.507812 -42.539062 2.65625 -42.90625 C 2.8125 -43.269531 2.953125 -43.628906 3.078125 -43.984375 C 3.367188 -44.828125 3.9375 -45.222656 4.78125 -45.171875 C 4.96875 -45.171875 5.117188 -45.171875 5.234375 -45.171875 C 5.359375 -45.171875 5.476562 -45.171875 5.59375 -45.171875 C 7.40625 -45.109375 8.472656 -44.910156 8.796875 -44.578125 C 9.128906 -44.242188 9.207031 -43.203125 9.03125 -41.453125 C 8.789062 -37.847656 8.550781 -34.265625 8.3125 -30.703125 C 8.070312 -27.148438 8.007812 -23.597656 8.125 -20.046875 C 8.1875 -18.066406 8.25 -16.097656 8.3125 -14.140625 C 8.375 -12.179688 8.582031 -10.238281 8.9375 -8.3125 C 9.0625 -7.53125 9.242188 -6.773438 9.484375 -6.046875 C 9.722656 -5.328125 10.023438 -4.632812 10.390625 -3.96875 C 11.171875 -2.582031 11.984375 -2.523438 12.828125 -3.796875 C 13.191406 -4.273438 13.507812 -4.785156 13.78125 -5.328125 C 14.050781 -5.867188 14.335938 -6.410156 14.640625 -6.953125 C 16.140625 -9.847656 17.625 -12.753906 19.09375 -15.671875 C 20.570312 -18.585938 22.066406 -21.492188 23.578125 -24.390625 C 23.640625 -24.566406 23.710938 -24.726562 23.796875 -24.875 C 23.890625 -25.03125 23.96875 -25.195312 24.03125 -25.375 C 24.445312 -26.164062 24.789062 -26.601562 25.0625 -26.6875 C 25.332031 -26.78125 25.832031 -26.707031 26.5625 -26.46875 Z M 7.59375 -49.953125 C 5.0625 -49.890625 3.765625 -50.882812 3.703125 -52.9375 C 3.640625 -54.082031 3.96875 -55.0625 4.6875 -55.875 C 5.414062 -56.6875 6.289062 -57.09375 7.3125 -57.09375 C 8.582031 -57.09375 9.59375 -56.789062 10.34375 -56.1875 C 11.09375 -55.582031 11.46875 -54.738281 11.46875 -53.65625 C 11.46875 -51.25 10.175781 -50.015625 7.59375 -49.953125 Z M 7.59375 -49.953125 "/></g></g></g><g fill="#000000" fill-opacity="1"><g transform="translate(122.597802, 278.06624)"><g><path d="M 17.4375 -43.625 C 17.4375 -43.863281 17.460938 -44.117188 17.515625 -44.390625 C 17.578125 -44.660156 17.550781 -44.976562 17.4375 -45.34375 C 15.988281 -45.519531 14.523438 -45.679688 13.046875 -45.828125 C 11.578125 -45.984375 10.117188 -46.242188 8.671875 -46.609375 C 8.546875 -45.222656 8.421875 -43.878906 8.296875 -42.578125 C 8.179688 -41.285156 8.097656 -40.007812 8.046875 -38.75 C 7.617188 -32.789062 6.953125 -26.84375 6.046875 -20.90625 C 5.148438 -14.976562 4.066406 -9.0625 2.796875 -3.15625 C 2.796875 -3.039062 2.78125 -2.921875 2.75 -2.796875 C 2.71875 -2.679688 2.675781 -2.5625 2.625 -2.4375 C 2.019531 0.03125 0.539062 0.753906 -1.8125 -0.265625 C -2.164062 -0.390625 -2.375 -0.585938 -2.4375 -0.859375 C -2.5 -1.128906 -2.53125 -1.414062 -2.53125 -1.71875 C -2.46875 -2.863281 -2.359375 -4.003906 -2.203125 -5.140625 C -2.054688 -6.285156 -1.894531 -7.429688 -1.71875 -8.578125 C -0.9375 -12.910156 -0.320312 -17.273438 0.125 -21.671875 C 0.582031 -26.066406 0.929688 -30.492188 1.171875 -34.953125 C 1.296875 -37.066406 1.445312 -39.160156 1.625 -41.234375 C 1.800781 -43.304688 1.984375 -45.367188 2.171875 -47.421875 C 2.171875 -47.785156 2.210938 -48.128906 2.296875 -48.453125 C 2.390625 -48.785156 2.46875 -49.101562 2.53125 -49.40625 C 2.644531 -50.726562 3.394531 -51.269531 4.78125 -51.03125 C 5.863281 -50.914062 6.914062 -50.78125 7.9375 -50.625 C 8.96875 -50.476562 9.96875 -50.132812 10.9375 -49.59375 C 11.832031 -49.050781 12.773438 -48.6875 13.765625 -48.5 C 14.765625 -48.320312 15.773438 -48.203125 16.796875 -48.140625 C 18.003906 -48.078125 19.207031 -48.046875 20.40625 -48.046875 C 21.613281 -48.046875 22.820312 -48.046875 24.03125 -48.046875 C 25.71875 -48.046875 26.90625 -47.671875 27.59375 -46.921875 C 28.289062 -46.171875 28.515625 -44.953125 28.265625 -43.265625 C 27.972656 -40.972656 27.628906 -38.664062 27.234375 -36.34375 C 26.835938 -34.03125 26.488281 -31.734375 26.1875 -29.453125 C 25.59375 -25.472656 25.171875 -21.507812 24.921875 -17.5625 C 24.679688 -13.625 24.65625 -9.664062 24.84375 -5.6875 C 24.90625 -4.0625 25.054688 -2.421875 25.296875 -0.765625 C 25.535156 0.890625 25.894531 2.5 26.375 4.0625 C 26.675781 5.03125 27.019531 5.554688 27.40625 5.640625 C 27.800781 5.734375 28.359375 5.445312 29.078125 4.78125 C 30.171875 3.882812 31.125 2.863281 31.9375 1.71875 C 32.75 0.570312 33.515625 -0.601562 34.234375 -1.8125 C 35.679688 -4.394531 36.929688 -7.039062 37.984375 -9.75 C 39.035156 -12.457031 40.046875 -15.226562 41.015625 -18.0625 C 41.609375 -19.925781 42.25 -21.804688 42.9375 -23.703125 C 43.632812 -25.609375 44.316406 -27.492188 44.984375 -29.359375 C 45.109375 -29.660156 45.242188 -29.972656 45.390625 -30.296875 C 45.535156 -30.628906 45.789062 -30.828125 46.15625 -30.890625 C 46.695312 -30.890625 47.253906 -30.859375 47.828125 -30.796875 C 48.398438 -30.742188 48.925781 -30.566406 49.40625 -30.265625 C 49.59375 -30.140625 49.6875 -29.972656 49.6875 -29.765625 C 49.6875 -29.554688 49.65625 -29.328125 49.59375 -29.078125 C 49.46875 -28.597656 49.34375 -28.117188 49.21875 -27.640625 C 49.101562 -27.160156 48.988281 -26.675781 48.875 -26.1875 C 47.601562 -22.039062 46.257812 -17.945312 44.84375 -13.90625 C 43.425781 -9.875 41.695312 -5.929688 39.65625 -2.078125 C 38.8125 -0.453125 37.863281 1.09375 36.8125 2.5625 C 35.757812 4.039062 34.566406 5.445312 33.234375 6.78125 C 32.210938 7.800781 30.796875 8.472656 28.984375 8.796875 C 27.179688 9.128906 25.421875 9.113281 23.703125 8.75 C 21.992188 8.394531 20.71875 7.738281 19.875 6.78125 C 19.09375 5.875 18.398438 4.878906 17.796875 3.796875 C 16.472656 1.328125 15.539062 -1.257812 15 -3.96875 C 14.457031 -6.6875 14.15625 -9.425781 14.09375 -12.1875 C 14.03125 -22.664062 15.144531 -33.144531 17.4375 -43.625 Z M 17.4375 -43.625 "/></g></g></g><g fill="#000000" fill-opacity="1"><g transform="translate(165.769699, 278.06624)"><g><path d="M 0.625 -10.84375 C 0.03125 -14.507812 -0.382812 -18.164062 -0.625 -21.8125 C -0.875 -25.457031 -0.875 -29.023438 -0.625 -32.515625 C -0.75 -36.128906 -0.660156 -39.648438 -0.359375 -43.078125 C -0.0546875 -46.515625 0.300781 -49.953125 0.71875 -53.390625 C 0.90625 -54.472656 0.90625 -55.101562 0.71875 -55.28125 C 0.539062 -55.457031 -0.117188 -55.546875 -1.265625 -55.546875 C -2.109375 -55.546875 -2.96875 -55.546875 -3.84375 -55.546875 C -4.71875 -55.546875 -5.570312 -55.546875 -6.40625 -55.546875 C -6.894531 -55.609375 -7.378906 -55.679688 -7.859375 -55.765625 C -8.335938 -55.859375 -8.546875 -56.300781 -8.484375 -57.09375 C -8.484375 -57.8125 -8.378906 -58.320312 -8.171875 -58.625 C -7.960938 -58.925781 -7.46875 -59.132812 -6.6875 -59.25 C -5.539062 -59.4375 -4.394531 -59.601562 -3.25 -59.75 C -2.101562 -59.90625 -0.957031 -60.007812 0.1875 -60.0625 C 1.382812 -60.1875 2.101562 -60.851562 2.34375 -62.0625 C 2.582031 -63.195312 2.867188 -64.304688 3.203125 -65.390625 C 3.535156 -66.484375 3.882812 -67.570312 4.25 -68.65625 C 4.664062 -69.851562 5.476562 -70.421875 6.6875 -70.359375 C 7.53125 -70.304688 8.359375 -70.289062 9.171875 -70.3125 C 9.984375 -70.34375 10.78125 -70.359375 11.5625 -70.359375 C 12.46875 -70.304688 13.023438 -70.15625 13.234375 -69.90625 C 13.441406 -69.664062 13.546875 -69.097656 13.546875 -68.203125 C 13.609375 -66.691406 13.578125 -65.15625 13.453125 -63.59375 C 13.335938 -62.382812 13.367188 -61.675781 13.546875 -61.46875 C 13.722656 -61.257812 14.445312 -61.15625 15.71875 -61.15625 C 18.25 -61.21875 20.789062 -61.335938 23.34375 -61.515625 C 25.90625 -61.691406 28.453125 -61.722656 30.984375 -61.609375 C 32.066406 -61.609375 33.164062 -61.609375 34.28125 -61.609375 C 35.394531 -61.609375 36.523438 -61.546875 37.671875 -61.421875 C 38.628906 -61.359375 39.242188 -61.144531 39.515625 -60.78125 C 39.785156 -60.425781 39.863281 -59.796875 39.75 -58.890625 C 39.625 -58.234375 39.320312 -57.875 38.84375 -57.8125 C 38.414062 -57.75 38.019531 -57.6875 37.65625 -57.625 C 37.300781 -57.570312 36.914062 -57.546875 36.5 -57.546875 C 33 -57.359375 29.488281 -57.171875 25.96875 -56.984375 C 22.445312 -56.804688 18.910156 -56.597656 15.359375 -56.359375 C 14.085938 -56.304688 13.332031 -56.171875 13.09375 -55.953125 C 12.851562 -55.742188 12.644531 -54.976562 12.46875 -53.65625 C 12.101562 -50.40625 11.816406 -47.140625 11.609375 -43.859375 C 11.398438 -40.578125 11.175781 -37.304688 10.9375 -34.046875 C 10.6875 -30.378906 10.53125 -26.722656 10.46875 -23.078125 C 10.414062 -19.429688 10.421875 -15.773438 10.484375 -12.109375 C 10.535156 -9.992188 10.726562 -7.910156 11.0625 -5.859375 C 11.394531 -3.816406 11.800781 -1.773438 12.28125 0.265625 C 12.46875 1.046875 12.738281 1.859375 13.09375 2.703125 C 13.695312 3.910156 14.328125 4.554688 14.984375 4.640625 C 15.648438 4.734375 16.4375 4.269531 17.34375 3.25 C 17.707031 2.882812 18.023438 2.488281 18.296875 2.0625 C 18.566406 1.644531 18.820312 1.226562 19.0625 0.8125 C 20.320312 -1.289062 21.359375 -3.457031 22.171875 -5.6875 C 22.984375 -7.914062 23.8125 -10.144531 24.65625 -12.375 C 25.320312 -14.125 25.941406 -15.851562 26.515625 -17.5625 C 27.085938 -19.28125 27.671875 -21.015625 28.265625 -22.765625 C 28.390625 -23.117188 28.507812 -23.476562 28.625 -23.84375 C 28.75 -24.207031 29.050781 -24.390625 29.53125 -24.390625 C 30.738281 -24.453125 31.765625 -24.148438 32.609375 -23.484375 C 32.785156 -23.304688 32.875 -23.109375 32.875 -22.890625 C 32.875 -22.679688 32.847656 -22.488281 32.796875 -22.3125 C 31.648438 -18.394531 30.535156 -14.492188 29.453125 -10.609375 C 28.367188 -6.722656 26.863281 -2.976562 24.9375 0.625 C 24.570312 1.351562 24.117188 2.078125 23.578125 2.796875 C 21.890625 5.265625 19.8125 6.785156 17.34375 7.359375 C 14.875 7.929688 12.253906 7.796875 9.484375 6.953125 C 8.460938 6.648438 7.585938 6.109375 6.859375 5.328125 C 6.140625 4.546875 5.507812 3.671875 4.96875 2.703125 C 3.820312 0.597656 2.898438 -1.59375 2.203125 -3.875 C 1.515625 -6.164062 0.988281 -8.488281 0.625 -10.84375 Z M 0.625 -10.84375 "/></g></g></g><g fill="#000000" fill-opacity="1"><g transform="translate(194.039171, 278.06624)"><g><path d="M 27.375 -25.203125 C 27.375 -25.078125 27.34375 -24.988281 27.28125 -24.9375 C 26.851562 -24.632812 26.578125 -24.285156 26.453125 -23.890625 C 26.335938 -23.492188 26.191406 -23.117188 26.015625 -22.765625 C 25.296875 -21.078125 24.570312 -19.390625 23.84375 -17.703125 C 23.125 -16.015625 22.398438 -14.328125 21.671875 -12.640625 C 20.773438 -10.660156 19.664062 -8.851562 18.34375 -7.21875 C 16.957031 -5.476562 15.070312 -4.335938 12.6875 -3.796875 C 10.3125 -3.253906 8.128906 -3.460938 6.140625 -4.421875 C 5.296875 -4.847656 4.617188 -5.390625 4.109375 -6.046875 C 3.597656 -6.710938 3.160156 -7.4375 2.796875 -8.21875 C 2.078125 -9.78125 1.566406 -11.40625 1.265625 -13.09375 C 0.960938 -14.78125 0.75 -16.46875 0.625 -18.15625 C 0.445312 -22.613281 0.429688 -27.066406 0.578125 -31.515625 C 0.734375 -35.972656 1.082031 -40.429688 1.625 -44.890625 C 1.6875 -45.253906 1.757812 -45.597656 1.84375 -45.921875 C 1.9375 -46.253906 1.984375 -46.570312 1.984375 -46.875 C 2.109375 -47.539062 2.53125 -47.90625 3.25 -47.96875 C 4.21875 -48.082031 5.210938 -48.1875 6.234375 -48.28125 C 7.253906 -48.375 8.273438 -48.445312 9.296875 -48.5 C 10.085938 -48.5 10.585938 -48.410156 10.796875 -48.234375 C 11.003906 -48.054688 11.078125 -47.546875 11.015625 -46.703125 C 10.898438 -44.535156 10.796875 -42.363281 10.703125 -40.1875 C 10.609375 -38.019531 10.472656 -35.851562 10.296875 -33.6875 C 9.992188 -30.4375 9.75 -27.1875 9.5625 -23.9375 C 9.382812 -20.6875 9.507812 -17.40625 9.9375 -14.09375 C 10.050781 -13.1875 10.179688 -12.296875 10.328125 -11.421875 C 10.484375 -10.546875 10.773438 -9.71875 11.203125 -8.9375 C 11.742188 -7.675781 12.523438 -7.523438 13.546875 -8.484375 C 13.847656 -8.847656 14.117188 -9.222656 14.359375 -9.609375 C 14.597656 -10.003906 14.835938 -10.414062 15.078125 -10.84375 C 16.710938 -13.613281 18.144531 -16.457031 19.375 -19.375 C 20.613281 -22.289062 21.832031 -25.253906 23.03125 -28.265625 C 24 -30.679688 24.976562 -33.078125 25.96875 -35.453125 C 26.957031 -37.828125 27.9375 -40.25 28.90625 -42.71875 C 29.144531 -43.382812 29.472656 -43.882812 29.890625 -44.21875 C 30.316406 -44.550781 30.921875 -44.6875 31.703125 -44.625 C 32.304688 -44.5625 32.910156 -44.570312 33.515625 -44.65625 C 34.117188 -44.75 34.71875 -44.828125 35.3125 -44.890625 C 36.394531 -44.953125 37 -44.441406 37.125 -43.359375 C 37.300781 -41.796875 37.363281 -40.257812 37.3125 -38.75 C 37.0625 -33.207031 36.695312 -27.679688 36.21875 -22.171875 C 35.738281 -16.660156 35.46875 -11.132812 35.40625 -5.59375 C 35.40625 -4.269531 35.421875 -2.914062 35.453125 -1.53125 C 35.484375 -0.144531 35.5 1.207031 35.5 2.53125 C 35.5 3.132812 35.539062 3.734375 35.625 4.328125 C 35.71875 4.929688 35.882812 5.535156 36.125 6.140625 C 36.664062 5.660156 37.023438 5.132812 37.203125 4.5625 C 37.390625 3.988281 37.570312 3.429688 37.75 2.890625 C 38.894531 -0.546875 40.023438 -3.945312 41.140625 -7.3125 C 42.253906 -10.6875 43.382812 -14.09375 44.53125 -17.53125 C 44.707031 -18.007812 44.882812 -18.519531 45.0625 -19.0625 C 45.25 -19.601562 45.429688 -20.113281 45.609375 -20.59375 C 45.910156 -21.5 46.578125 -21.890625 47.609375 -21.765625 C 49.171875 -21.648438 50.039062 -21.457031 50.21875 -21.1875 C 50.40625 -20.914062 50.285156 -20.023438 49.859375 -18.515625 C 48.710938 -14.722656 47.582031 -10.925781 46.46875 -7.125 C 45.351562 -3.332031 44.132812 0.425781 42.8125 4.15625 C 42.570312 4.757812 42.316406 5.375 42.046875 6 C 41.773438 6.632812 41.488281 7.253906 41.1875 7.859375 C 40.53125 9.304688 39.644531 10.285156 38.53125 10.796875 C 37.414062 11.304688 36.132812 11.53125 34.6875 11.46875 C 31.851562 11.351562 29.925781 9.9375 28.90625 7.21875 C 28.476562 6.132812 28.144531 5.035156 27.90625 3.921875 C 27.664062 2.816406 27.457031 1.691406 27.28125 0.546875 C 26.851562 -2.523438 26.625 -5.582031 26.59375 -8.625 C 26.570312 -11.664062 26.679688 -14.722656 26.921875 -17.796875 C 26.984375 -18.992188 27.054688 -20.179688 27.140625 -21.359375 C 27.234375 -22.535156 27.25 -23.726562 27.1875 -24.9375 C 27.3125 -24.988281 27.375 -25.046875 27.375 -25.109375 C 27.375 -25.109375 27.375 -25.140625 27.375 -25.203125 Z M 27.375 -25.203125 "/></g></g></g><g fill="#000000" fill-opacity="1"><g transform="translate(239.920611, 278.06624)"><g><path d="M 48.5 -25.296875 C 49.34375 -24.929688 49.8125 -24.628906 49.90625 -24.390625 C 50 -24.148438 49.863281 -23.578125 49.5 -22.671875 C 47.75 -18.753906 45.957031 -14.882812 44.125 -11.0625 C 42.289062 -7.238281 40.378906 -3.429688 38.390625 0.359375 C 37.960938 1.203125 37.476562 2.046875 36.9375 2.890625 C 36.394531 3.734375 35.796875 4.515625 35.140625 5.234375 C 33.929688 6.554688 32.484375 7.351562 30.796875 7.625 C 29.109375 7.90625 27.484375 7.695312 25.921875 7 C 24.359375 6.3125 23.15625 5.179688 22.3125 3.609375 C 21.40625 1.867188 20.722656 0.0507812 20.265625 -1.84375 C 19.816406 -3.75 19.445312 -5.664062 19.15625 -7.59375 C 18.851562 -9.394531 18.65625 -11.179688 18.5625 -12.953125 C 18.46875 -14.734375 18.363281 -16.53125 18.25 -18.34375 C 18.25 -18.519531 18.25 -18.742188 18.25 -19.015625 C 18.25 -19.285156 18.097656 -19.539062 17.796875 -19.78125 C 17.316406 -18.875 16.816406 -18 16.296875 -17.15625 C 15.785156 -16.3125 15.257812 -15.441406 14.71875 -14.546875 C 14.238281 -13.703125 13.710938 -12.890625 13.140625 -12.109375 C 12.566406 -11.328125 11.953125 -10.539062 11.296875 -9.75 C 9.960938 -8.363281 8.304688 -7.671875 6.328125 -7.671875 C 3.796875 -7.671875 2.046875 -8.816406 1.078125 -11.109375 C 0.597656 -12.253906 0.238281 -13.425781 0 -14.625 C -0.238281 -15.832031 -0.390625 -17.039062 -0.453125 -18.25 C -0.566406 -20.832031 -0.441406 -23.359375 -0.078125 -25.828125 C 0.273438 -28.296875 0.960938 -30.707031 1.984375 -33.0625 C 3.191406 -35.832031 4.800781 -38.179688 6.8125 -40.109375 C 8.832031 -42.035156 11.410156 -43.300781 14.546875 -43.90625 C 15.628906 -44.082031 16.664062 -44.109375 17.65625 -43.984375 C 18.65625 -43.867188 19.664062 -43.691406 20.6875 -43.453125 C 21.289062 -43.328125 21.984375 -43.382812 22.765625 -43.625 C 23.960938 -44.101562 25.207031 -44.328125 26.5 -44.296875 C 27.800781 -44.273438 29.082031 -44.234375 30.34375 -44.171875 C 30.644531 -44.171875 30.851562 -44.0625 30.96875 -43.84375 C 31.09375 -43.632812 31.1875 -43.410156 31.25 -43.171875 C 31.4375 -42.628906 31.539062 -42.070312 31.5625 -41.5 C 31.59375 -40.925781 31.609375 -40.367188 31.609375 -39.828125 C 31.554688 -35.015625 31.40625 -30.210938 31.15625 -25.421875 C 30.914062 -20.640625 30.644531 -15.835938 30.34375 -11.015625 C 30.226562 -9.210938 30.140625 -7.421875 30.078125 -5.640625 C 30.015625 -3.867188 30.015625 -2.078125 30.078125 -0.265625 C 30.078125 0.210938 30.109375 0.722656 30.171875 1.265625 C 30.234375 1.804688 30.382812 2.347656 30.625 2.890625 C 31.101562 2.710938 31.476562 2.425781 31.75 2.03125 C 32.019531 1.632812 32.273438 1.289062 32.515625 1 C 33.960938 -1.113281 35.285156 -3.296875 36.484375 -5.546875 C 37.691406 -7.804688 38.867188 -10.082031 40.015625 -12.375 C 41.035156 -14.300781 42.007812 -16.242188 42.9375 -18.203125 C 43.875 -20.160156 44.828125 -22.101562 45.796875 -24.03125 C 46.273438 -24.988281 46.648438 -25.523438 46.921875 -25.640625 C 47.191406 -25.765625 47.71875 -25.648438 48.5 -25.296875 Z M 20.6875 -37.03125 C 20.800781 -38.300781 20.507812 -39.207031 19.8125 -39.75 C 19.125 -40.289062 18.179688 -40.410156 16.984375 -40.109375 C 16.503906 -39.921875 16.050781 -39.691406 15.625 -39.421875 C 15.207031 -39.148438 14.816406 -38.835938 14.453125 -38.484375 C 13.734375 -37.816406 13.101562 -37.109375 12.5625 -36.359375 C 12.019531 -35.609375 11.503906 -34.835938 11.015625 -34.046875 C 9.210938 -31.222656 7.945312 -28.257812 7.21875 -25.15625 C 6.5 -22.050781 6.109375 -18.84375 6.046875 -15.53125 C 6.046875 -15.289062 6.03125 -15.035156 6 -14.765625 C 5.976562 -14.492188 5.992188 -14.238281 6.046875 -14 C 6.109375 -13.457031 6.078125 -12.851562 5.953125 -12.1875 C 5.835938 -11.53125 6.171875 -11.113281 6.953125 -10.9375 C 7.617188 -10.75 8.128906 -10.941406 8.484375 -11.515625 C 8.847656 -12.085938 9.148438 -12.613281 9.390625 -13.09375 C 11.441406 -16.46875 13.320312 -19.914062 15.03125 -23.4375 C 16.75 -26.957031 18.394531 -30.492188 19.96875 -34.046875 C 20.320312 -34.953125 20.5625 -35.945312 20.6875 -37.03125 Z M 20.6875 -37.03125 "/></g></g></g><g fill="#000000" fill-opacity="1"><g transform="translate(286.434275, 278.06624)"><g><path d="M -3.15625 -30.078125 C -3.21875 -31.285156 -3.28125 -32.472656 -3.34375 -33.640625 C -3.40625 -34.816406 -3.460938 -35.828125 -3.515625 -36.671875 C -3.398438 -41.367188 -3.054688 -45.835938 -2.484375 -50.078125 C -1.910156 -54.328125 -0.929688 -58.5 0.453125 -62.59375 C 1.109375 -64.582031 1.90625 -66.507812 2.84375 -68.375 C 3.78125 -70.238281 4.910156 -71.988281 6.234375 -73.625 C 7.316406 -75.0625 8.550781 -76.273438 9.9375 -77.265625 C 11.320312 -78.265625 12.945312 -78.945312 14.8125 -79.3125 C 17.039062 -79.726562 19.085938 -79.4375 20.953125 -78.4375 C 22.816406 -77.445312 24.203125 -75.898438 25.109375 -73.796875 C 25.773438 -72.234375 26.195312 -70.648438 26.375 -69.046875 C 26.550781 -67.453125 26.582031 -65.84375 26.46875 -64.21875 C 26.101562 -59.644531 25.078125 -55.191406 23.390625 -50.859375 C 21.460938 -46.035156 19.367188 -41.320312 17.109375 -36.71875 C 14.859375 -32.113281 12.164062 -27.734375 9.03125 -23.578125 C 8.425781 -22.734375 8.15625 -21.859375 8.21875 -20.953125 C 8.394531 -18.003906 8.785156 -15.097656 9.390625 -12.234375 C 9.992188 -9.378906 10.835938 -6.566406 11.921875 -3.796875 C 11.921875 -3.671875 11.953125 -3.546875 12.015625 -3.421875 C 12.078125 -3.304688 12.132812 -3.191406 12.1875 -3.078125 C 13.820312 0.0546875 15.960938 0.421875 18.609375 -1.984375 C 19.265625 -2.648438 19.863281 -3.375 20.40625 -4.15625 C 20.957031 -4.9375 21.472656 -5.71875 21.953125 -6.5 C 23.453125 -9.15625 24.773438 -11.878906 25.921875 -14.671875 C 27.066406 -17.472656 28.269531 -20.226562 29.53125 -22.9375 C 29.65625 -23.175781 29.757812 -23.414062 29.84375 -23.65625 C 29.9375 -23.90625 30.046875 -24.148438 30.171875 -24.390625 C 30.535156 -25.171875 31.0625 -25.648438 31.75 -25.828125 C 32.445312 -26.015625 33.15625 -25.863281 33.875 -25.375 C 34.175781 -25.195312 34.328125 -24.925781 34.328125 -24.5625 C 34.265625 -24.269531 34.203125 -24.03125 34.140625 -23.84375 C 32.878906 -20.53125 31.628906 -17.21875 30.390625 -13.90625 C 29.160156 -10.59375 27.613281 -7.429688 25.75 -4.421875 C 25.382812 -3.878906 25.003906 -3.351562 24.609375 -2.84375 C 24.222656 -2.332031 23.847656 -1.835938 23.484375 -1.359375 C 22.097656 0.390625 20.515625 1.59375 18.734375 2.25 C 16.960938 2.914062 14.992188 3.128906 12.828125 2.890625 C 10.054688 2.648438 7.796875 1.445312 6.046875 -0.71875 C 4.898438 -2.164062 3.90625 -3.703125 3.0625 -5.328125 C 2.226562 -6.953125 1.507812 -8.640625 0.90625 -10.390625 C -0.238281 -13.578125 -1.125 -16.8125 -1.75 -20.09375 C -2.382812 -23.375 -2.851562 -26.703125 -3.15625 -30.078125 Z M 7.3125 -30.625 C 7.3125 -30.4375 7.34375 -30.222656 7.40625 -29.984375 C 7.46875 -29.742188 7.679688 -29.503906 8.046875 -29.265625 C 8.335938 -29.742188 8.601562 -30.207031 8.84375 -30.65625 C 9.09375 -31.113281 9.335938 -31.550781 9.578125 -31.96875 C 10.773438 -34.144531 11.882812 -36.34375 12.90625 -38.5625 C 13.9375 -40.789062 14.929688 -43.050781 15.890625 -45.34375 C 17.097656 -48.351562 18.078125 -51.421875 18.828125 -54.546875 C 19.585938 -57.679688 20.054688 -60.878906 20.234375 -64.140625 C 20.296875 -65.703125 20.203125 -67.21875 19.953125 -68.6875 C 19.710938 -70.164062 19.234375 -71.628906 18.515625 -73.078125 C 17.367188 -75.367188 16.078125 -75.457031 14.640625 -73.34375 C 14.148438 -72.625 13.722656 -71.882812 13.359375 -71.125 C 13.003906 -70.375 12.675781 -69.609375 12.375 -68.828125 C 10.082031 -62.628906 8.578125 -56.351562 7.859375 -50 C 7.140625 -43.644531 6.957031 -37.1875 7.3125 -30.625 Z M 7.3125 -30.625 "/></g></g></g><g fill="#000000" fill-opacity="1"><g transform="translate(149.918257, 323.277961)"><g><path d="M 14.65625 -2.296875 C 14.21875 -1.597656 13.535156 -0.988281 12.609375 -0.46875 C 11.679688 0.0390625 10.5 0.296875 9.0625 0.296875 C 7.894531 0.296875 6.816406 0.109375 5.828125 -0.265625 C 4.847656 -0.640625 3.988281 -1.160156 3.25 -1.828125 C 2.519531 -2.503906 1.953125 -3.300781 1.546875 -4.21875 C 1.140625 -5.132812 0.9375 -6.132812 0.9375 -7.21875 C 0.9375 -8.457031 1.179688 -9.550781 1.671875 -10.5 C 2.171875 -11.445312 2.84375 -12.238281 3.6875 -12.875 C 4.53125 -13.507812 5.46875 -13.988281 6.5 -14.3125 C 7.539062 -14.632812 8.59375 -14.796875 9.65625 -14.796875 C 11 -14.796875 12.101562 -14.578125 12.96875 -14.140625 C 13.832031 -13.710938 14.5 -13.207031 14.96875 -12.625 L 11.96875 -8.578125 L 11.90625 -8.609375 C 12.175781 -9.328125 12.296875 -10.023438 12.265625 -10.703125 C 12.242188 -11.390625 12.082031 -12.007812 11.78125 -12.5625 C 11.488281 -13.113281 11.066406 -13.550781 10.515625 -13.875 C 9.960938 -14.207031 9.289062 -14.375 8.5 -14.375 C 7.65625 -14.375 6.894531 -14.160156 6.21875 -13.734375 C 5.539062 -13.316406 5.003906 -12.679688 4.609375 -11.828125 C 4.210938 -10.972656 4.015625 -9.898438 4.015625 -8.609375 C 4.015625 -7.554688 4.171875 -6.554688 4.484375 -5.609375 C 4.796875 -4.660156 5.234375 -3.820312 5.796875 -3.09375 C 6.367188 -2.375 7.046875 -1.804688 7.828125 -1.390625 C 8.617188 -0.972656 9.5 -0.765625 10.46875 -0.765625 C 11.226562 -0.765625 11.976562 -0.898438 12.71875 -1.171875 C 13.46875 -1.441406 14.066406 -1.851562 14.515625 -2.40625 Z M 14.65625 -2.296875 "/></g></g></g><g fill="#000000" fill-opacity="1"><g transform="translate(170.975278, 323.277961)"><g><path d="M 16.28125 -14.40625 C 15.851562 -14.351562 15.484375 -14.253906 15.171875 -14.109375 C 14.859375 -13.960938 14.703125 -13.703125 14.703125 -13.328125 L 14.703125 -1.1875 C 14.703125 -0.8125 14.859375 -0.550781 15.171875 -0.40625 C 15.484375 -0.257812 15.851562 -0.160156 16.28125 -0.109375 L 16.28125 0 L 10.28125 0 L 10.28125 -0.109375 C 10.707031 -0.160156 11.078125 -0.257812 11.390625 -0.40625 C 11.703125 -0.550781 11.859375 -0.8125 11.859375 -1.1875 L 11.859375 -6.984375 L 4.734375 -6.984375 L 4.734375 -1.1875 C 4.734375 -0.8125 4.882812 -0.550781 5.1875 -0.40625 C 5.5 -0.257812 5.867188 -0.160156 6.296875 -0.109375 L 6.296875 0 L 0.3125 0 L 0.3125 -0.109375 C 0.738281 -0.160156 1.109375 -0.257812 1.421875 -0.40625 C 1.734375 -0.550781 1.890625 -0.8125 1.890625 -1.1875 L 1.890625 -13.328125 C 1.890625 -13.703125 1.734375 -13.960938 1.421875 -14.109375 C 1.109375 -14.253906 0.738281 -14.351562 0.3125 -14.40625 L 0.3125 -14.515625 L 6.296875 -14.515625 L 6.296875 -14.40625 C 5.867188 -14.351562 5.5 -14.253906 5.1875 -14.109375 C 4.882812 -13.960938 4.734375 -13.703125 4.734375 -13.328125 L 4.734375 -7.34375 L 11.859375 -7.34375 L 11.859375 -13.328125 C 11.859375 -13.703125 11.703125 -13.960938 11.390625 -14.109375 C 11.078125 -14.253906 10.707031 -14.351562 10.28125 -14.40625 L 10.28125 -14.515625 L 16.28125 -14.515625 Z M 16.28125 -14.40625 "/></g></g></g><g fill="#000000" fill-opacity="1"><g transform="translate(193.026916, 323.277961)"><g><path d="M 13.140625 -4.421875 L 13.234375 -4.375 L 12.125 0 L 12 0.453125 L 11.296875 0 L 0.3125 0 L 0.3125 -0.109375 C 0.738281 -0.253906 1.109375 -0.441406 1.421875 -0.671875 C 1.734375 -0.910156 1.890625 -1.21875 1.890625 -1.59375 L 1.890625 -13.328125 C 1.890625 -13.703125 1.734375 -13.960938 1.421875 -14.109375 C 1.109375 -14.253906 0.738281 -14.351562 0.3125 -14.40625 L 0.3125 -14.515625 L 11.71875 -14.515625 L 12.484375 -10.859375 L 12.40625 -10.828125 C 11.875 -11.597656 11.394531 -12.234375 10.96875 -12.734375 C 10.539062 -13.234375 10.050781 -13.597656 9.5 -13.828125 C 8.957031 -14.066406 8.238281 -14.1875 7.34375 -14.1875 L 4.734375 -14.1875 L 4.734375 -7.421875 L 6.46875 -7.421875 C 7.320312 -7.421875 8.015625 -7.492188 8.546875 -7.640625 C 9.078125 -7.785156 9.492188 -8.035156 9.796875 -8.390625 C 10.109375 -8.753906 10.347656 -9.253906 10.515625 -9.890625 L 10.515625 -4.640625 C 10.347656 -5.273438 10.109375 -5.769531 9.796875 -6.125 C 9.492188 -6.476562 9.078125 -6.726562 8.546875 -6.875 C 8.015625 -7.019531 7.320312 -7.09375 6.46875 -7.09375 L 4.734375 -7.09375 L 4.734375 -0.328125 L 7.46875 -0.328125 C 8.363281 -0.328125 9.128906 -0.472656 9.765625 -0.765625 C 10.398438 -1.066406 10.976562 -1.519531 11.5 -2.125 C 12.03125 -2.726562 12.578125 -3.492188 13.140625 -4.421875 Z M 13.140625 -4.421875 "/></g></g></g><g fill="#000000" fill-opacity="1"><g transform="translate(212.032544, 323.277961)"><g><path d="M 11.84375 -14.515625 L 12.609375 -10.859375 L 12.53125 -10.828125 C 12 -11.597656 11.519531 -12.234375 11.09375 -12.734375 C 10.664062 -13.234375 10.175781 -13.597656 9.625 -13.828125 C 9.082031 -14.066406 8.363281 -14.1875 7.46875 -14.1875 L 4.734375 -14.1875 L 4.734375 -7.21875 L 6.65625 -7.21875 C 7.507812 -7.21875 8.203125 -7.289062 8.734375 -7.4375 C 9.265625 -7.582031 9.679688 -7.832031 9.984375 -8.1875 C 10.296875 -8.550781 10.535156 -9.050781 10.703125 -9.6875 L 10.703125 -4.4375 C 10.535156 -5.070312 10.296875 -5.566406 9.984375 -5.921875 C 9.679688 -6.273438 9.265625 -6.523438 8.734375 -6.671875 C 8.203125 -6.816406 7.507812 -6.890625 6.65625 -6.890625 L 4.734375 -6.890625 L 4.734375 -1.1875 C 4.734375 -0.8125 4.882812 -0.550781 5.1875 -0.40625 C 5.5 -0.257812 5.867188 -0.160156 6.296875 -0.109375 L 6.296875 0 L 0.3125 0 L 0.3125 -0.109375 C 0.738281 -0.253906 1.109375 -0.441406 1.421875 -0.671875 C 1.734375 -0.910156 1.890625 -1.21875 1.890625 -1.59375 L 1.890625 -13.328125 C 1.890625 -13.703125 1.734375 -13.960938 1.421875 -14.109375 C 1.109375 -14.253906 0.738281 -14.351562 0.3125 -14.40625 L 0.3125 -14.515625 Z M 11.84375 -14.515625 "/></g></g></g></svg>